<?xml version="1.0" encoding="utf-8"?>
<!-- Generated by Mocodo 4.2.12 -->
<svg width="762" height="102" viewBox="0 0 762 102" xmlns="http://www.w3.org/2000/svg">
<rect x="0" y="0" width="762" height="102" fill="#f7f7f7" stroke="none" stroke-width="0"/>

<!-- Association ASSOCIER -->
<g>
	<line x1="257" y1="51" x2="148" y2="51" stroke="#de77ae" stroke-width="2"/>
	<line x1="43" y1="51" x2="148" y2="51" stroke="#de77ae" stroke-width="2"/>
	<g>
		<path d="M173 26 a14 14 90 0 1 14 14 V51 h-78 V40 a14 14 90 0 1 14 -14" fill="#f1b6da" stroke="#f1b6da" stroke-width="0"/>
		<path d="M187 51 v11 a14 14 90 0 1 -14 14 H123 a14 14 90 0 1 -14 -14 V51 H78" fill="#fde0ef" stroke="#fde0ef" stroke-width="0"/>
		<rect x="109" y="26" width="78" height="50" fill="none" rx="14" stroke="#de77ae" stroke-width="2"/>
		<line x1="109" y1="51" x2="187" y2="51" stroke="#de77ae" stroke-width="1"/>
		<text x="116" y="43.75" fill="#000000" font-family="Verdana" font-size="12">ASSOCIER</text>
		<text x="116" y="68.8" fill="#000000" font-family="Verdana" font-size="12">correcte</text>
	</g>
	<text x="192" y="68" fill="#4d9221" font-family="Verdana" font-size="12">0,N</text>
	<text x="82" y="68" fill="#4d9221" font-family="Verdana" font-size="12">0,N</text>
</g>

<!-- Association COMPOSER -->
<g>
	<line x1="475" y1="51" x2="369" y2="51" stroke="#de77ae" stroke-width="2"/>
	<line x1="257" y1="51" x2="369" y2="51" stroke="#de77ae" stroke-width="2"/>
	<g>
		<path d="M397 26 a14 14 90 0 1 14 14 V51 h-84 V40 a14 14 90 0 1 14 -14" fill="#f1b6da" stroke="#f1b6da" stroke-width="0"/>
		<path d="M411 51 v11 a14 14 90 0 1 -14 14 H341 a14 14 90 0 1 -14 -14 V51 H84" fill="#fde0ef" stroke="#fde0ef" stroke-width="0"/>
		<rect x="327" y="26" width="84" height="50" fill="none" rx="14" stroke="#de77ae" stroke-width="2"/>
		<line x1="327" y1="51" x2="411" y2="51" stroke="#de77ae" stroke-width="1"/>
		<text x="334" y="43.75" fill="#000000" font-family="Verdana" font-size="12">COMPOSER</text>
	</g>
	<text x="416" y="68" fill="#4d9221" font-family="Verdana" font-size="12">0,N</text>
	<text x="300" y="68" fill="#4d9221" font-family="Verdana" font-size="12">0,N</text>
</g>

<!-- Association PARTICIPER -->
<g>
	<line x1="475" y1="51" x2="583" y2="51" stroke="#de77ae" stroke-width="2"/>
	<line x1="706" y1="51" x2="583" y2="51" stroke="#de77ae" stroke-width="2"/>
	<g>
		<path d="M613 17 a14 14 90 0 1 14 14 V42 h-88 V31 a14 14 90 0 1 14 -14" fill="#f1b6da" stroke="#f1b6da" stroke-width="0"/>
		<path d="M627 42 v29 a14 14 90 0 1 -14 14 H553 a14 14 90 0 1 -14 -14 V42 H88" fill="#fde0ef" stroke="#fde0ef" stroke-width="0"/>
		<rect x="539" y="17" width="88" height="68" fill="none" rx="14" stroke="#de77ae" stroke-width="2"/>
		<line x1="539" y1="42" x2="627" y2="42" stroke="#de77ae" stroke-width="1"/>
		<text x="546" y="34.75" fill="#000000" font-family="Verdana" font-size="12">PARTICIPER</text>
		<text x="546" y="59.8" fill="#000000" font-family="Verdana" font-size="12">points</text>
		<text x="546" y="76.8" fill="#000000" font-family="Verdana" font-size="12">datePart</text>
	</g>
	<text x="512" y="68" fill="#4d9221" font-family="Verdana" font-size="12">0,N</text>
	<text x="632" y="68" fill="#4d9221" font-family="Verdana" font-size="12">0,N</text>
</g>

<!-- Entity REPONSE -->
<g>
	<g>
		<rect x="9" y="17" width="68" height="25" fill="#b8e186" stroke="none" stroke-width="0" opacity="1"/>
		<rect x="9" y="42" width="68" height="43" fill="#e6f5d0" stroke="none" stroke-width="0" opacity="1"/>
		<rect x="9" y="17" width="68" height="68" fill="none" stroke="#7fbc41" stroke-width="2" opacity="1"/>
		<line x1="9" y1="42" x2="77" y2="42" stroke="#7fbc41" stroke-width="1"/>
	</g>
	<text x="14" y="34.75" fill="#000000" font-family="Verdana" font-size="12">REPONSE</text>
	<text x="14" y="59.8" fill="#000000" font-family="Verdana" font-size="12">numR</text>
	<line x1="14" y1="62" x2="50" y2="62" stroke="#000000" stroke-width="1"/>
	<text x="14" y="76.8" fill="#000000" font-family="Verdana" font-size="12">libelle</text>
</g>

<!-- Entity QUESTION -->
<g>
	<g>
		<rect x="219" y="17" width="76" height="25" fill="#b8e186" stroke="none" stroke-width="0" opacity="1"/>
		<rect x="219" y="42" width="76" height="43" fill="#e6f5d0" stroke="none" stroke-width="0" opacity="1"/>
		<rect x="219" y="17" width="76" height="68" fill="none" stroke="#7fbc41" stroke-width="2" opacity="1"/>
		<line x1="219" y1="42" x2="295" y2="42" stroke="#7fbc41" stroke-width="1"/>
	</g>
	<text x="224" y="34.75" fill="#000000" font-family="Verdana" font-size="12">QUESTION</text>
	<text x="224" y="59.8" fill="#000000" font-family="Verdana" font-size="12">numQ</text>
	<line x1="224" y1="62" x2="261" y2="62" stroke="#000000" stroke-width="1"/>
	<text x="224" y="76.8" fill="#000000" font-family="Verdana" font-size="12">intitule</text>
</g>

<!-- Entity QUIZ -->
<g>
	<g>
		<rect x="443" y="17" width="64" height="25" fill="#b8e186" stroke="none" stroke-width="0" opacity="1"/>
		<rect x="443" y="42" width="64" height="43" fill="#e6f5d0" stroke="none" stroke-width="0" opacity="1"/>
		<rect x="443" y="17" width="64" height="68" fill="none" stroke="#7fbc41" stroke-width="2" opacity="1"/>
		<line x1="443" y1="42" x2="507" y2="42" stroke="#7fbc41" stroke-width="1"/>
	</g>
	<text x="459" y="34.75" fill="#000000" font-family="Verdana" font-size="12">QUIZ</text>
	<text x="448" y="59.8" fill="#000000" font-family="Verdana" font-size="12">idQuiz</text>
	<line x1="448" y1="62" x2="486" y2="62" stroke="#000000" stroke-width="1"/>
	<text x="448" y="76.8" fill="#000000" font-family="Verdana" font-size="12">nomQuiz</text>
</g>

<!-- Entity UTILISATEUR -->
<g>
	<g>
		<rect x="659" y="9" width="94" height="25" fill="#b8e186" stroke="none" stroke-width="0" opacity="1"/>
		<rect x="659" y="34" width="94" height="59" fill="#e6f5d0" stroke="none" stroke-width="0" opacity="1"/>
		<rect x="659" y="9" width="94" height="84" fill="none" stroke="#7fbc41" stroke-width="2" opacity="1"/>
		<line x1="659" y1="34" x2="753" y2="34" stroke="#7fbc41" stroke-width="1"/>
	</g>
	<text x="665" y="26.75" fill="#000000" font-family="Verdana" font-size="12">UTILISATEUR</text>
	<text x="664" y="51.8" fill="#000000" font-family="Verdana" font-size="12">idU</text>
	<line x1="664" y1="54" x2="685" y2="54" stroke="#000000" stroke-width="1"/>
	<text x="664" y="68.8" fill="#000000" font-family="Verdana" font-size="12">nomU</text>
	<text x="664" y="85.8" fill="#000000" font-family="Verdana" font-size="12">prenomU</text>
</g>
</svg>